<svg width="511" height="512" viewBox="0 0 511 512" fill="none" xmlns="http://www.w3.org/2000/svg">
<path d="M452.339 61H58.6607C26.3061 61 0 81.19 0 106C0 130.82 26.3061 151 58.6607 151H452.339C484.681 151 511 130.82 511 106C511 81.19 484.681 61 452.339 61Z" fill="#605DEC"/>
<path d="M452.339 211H58.6607C26.3061 211 0 231.19 0 256C0 280.82 26.3061 301 58.6607 301H452.339C484.681 301 511 280.82 511 256C511 231.19 484.681 211 452.339 211Z" fill="#605DEC"/>
<path d="M452.339 361H58.6607C26.3061 361 0 381.19 0 406C0 430.82 26.3061 451 58.6607 451H452.339C484.681 451 511 430.82 511 406C511 381.19 484.681 361 452.339 361Z" fill="#605DEC"/>
</svg>
