<svg width="25" height="24" fill="none" xmlns="http://www.w3.org/2000/svg"><path d="M12.102 16.28h0L8.49 17.75l.28-3.889a1.5 1.5 0 00-.349-1.075l-2.513-2.98 3.786-.936a1.5 1.5 0 00.914-.664l2.059-3.311 2.058 3.311.85-.528-.85.528a1.5 1.5 0 00.915.664l3.785.935-2.513 2.981a1.5 1.5 0 00-.35 1.075l.281 3.889-3.611-1.469-.377.927.377-.927a1.5 1.5 0 00-1.13 0zM5.128 9.997h0s0 0 0 0l-.12-.486.12.486z" stroke="url(#paint0_linear)" stroke-width="2"/><defs><linearGradient id="paint0_linear" x1="12.667" y1="3" x2="12.667" y2="21" gradientUnits="userSpaceOnUse"><stop stop-color="#605DEC"/><stop offset="1" stop-color="#2A26D9"/></linearGradient></defs></svg>