<svg width="24" height="24" fill="none" xmlns="http://www.w3.org/2000/svg"><path d="M11.575 3.683a.5.5 0 01.85 0l2.483 3.994a.5.5 0 00.305.221l4.566 1.128a.5.5 0 01.262.808L17.01 13.43a.5.5 0 00-.116.358l.338 4.691a.5.5 0 01-.687.5l-4.357-1.772a.5.5 0 00-.376 0l-4.357 1.771a.5.5 0 01-.687-.499l.338-4.691a.5.5 0 00-.116-.358L3.959 9.834a.5.5 0 01.262-.808l4.566-1.128a.5.5 0 00.305-.22l2.483-3.995z" fill="url(#paint0_linear)"/><defs><linearGradient id="paint0_linear" x1="12" y1="3" x2="12" y2="21" gradientUnits="userSpaceOnUse"><stop stop-color="#605DEC"/><stop offset="1" stop-color="#2A26D9"/></linearGradient></defs></svg>