<svg width="32" height="33" fill="none" xmlns="http://www.w3.org/2000/svg"><path fill-rule="evenodd" clip-rule="evenodd" d="M12 13.833c0-2.63 1.857-4.333 4-4.333s4 1.704 4 4.333c0 .355-.127.996-.463 1.93-.322.895-.779 1.91-1.305 2.957A63.316 63.316 0 0116 22.737a63.316 63.316 0 01-2.232-4.017c-.526-1.047-.984-2.062-1.305-2.956-.336-.935-.463-1.576-.463-1.93zM16 7.5c-3.314 0-6 2.667-6 6.333 0 2.822 3.554 8.803 5.191 11.409a.948.948 0 001.618 0C18.446 22.636 22 16.655 22 13.833c0-3.666-2.686-6.333-6-6.333zm0 8a2 2 0 100-4 2 2 0 000 4z" fill="#6E7491"/></svg>