<svg width="135" height="40" fill="none" xmlns="http://www.w3.org/2000/svg"><path d="M0 4a4 4 0 014-4h127a4 4 0 014 4v32a4 4 0 01-4 4H4a4 4 0 01-4-4V4z" fill="#000"/><path d="M17.991 30.718a5.448 5.448 0 01-1.26-1.168c-.388-.47-.748-.964-1.078-1.476a14.286 14.286 0 01-1.803-3.69c-.506-1.525-.752-2.985-.752-4.413 0-1.593.344-2.984 1.015-4.151a5.863 5.863 0 012.127-2.215 5.663 5.663 0 012.876-.853c.355 0 .74.051 1.145.153.294.08.648.213 1.084.375.557.213.86.345.962.376.324.122.598.172.81.172.162 0 .395-.05.654-.131.147-.051.425-.143.82-.315.391-.142.701-.264.947-.355a8.458 8.458 0 011.064-.264 4.976 4.976 0 011.163-.051c.719.05 1.377.203 1.965.426 1.033.416 1.866 1.066 2.488 1.99a4.995 4.995 0 00-.734.558 6.213 6.213 0 00-1.246 1.527 5.185 5.185 0 00-.652 2.558c.015 1.1.294 2.066.85 2.903a5.41 5.41 0 001.555 1.56c.314.213.59.36.85.456-.121.38-.255.751-.41 1.117-.351.819-.77 1.604-1.266 2.345-.438.639-.782 1.116-1.043 1.43-.407.488-.8.853-1.195 1.114-.436.29-.948.443-1.471.443a3.257 3.257 0 01-1.048-.13 10.16 10.16 0 01-.867-.327 7.026 7.026 0 00-.916-.345 4.57 4.57 0 00-1.18-.15c-.405 0-.8.051-1.174.148-.314.09-.618.199-.92.33-.424.177-.703.294-.865.345a4.522 4.522 0 01-1.003.177c-.527 0-1.017-.152-1.505-.456l.013-.014zm6.943-18.738c-.69.345-1.344.491-1.999.443-.101-.656 0-1.33.274-2.068A5.591 5.591 0 0124.22 8.65a5.48 5.48 0 011.651-1.28c.67-.344 1.307-.527 1.915-.558.081.69 0 1.37-.253 2.102A6.03 6.03 0 0126.52 10.7a5.11 5.11 0 01-1.607 1.279l.02.001zM43.684 14h2.368c2.095 0 3.325-1.304 3.325-3.525v-.01c0-2.212-1.24-3.51-3.325-3.51h-2.368V14zm.879-.791V7.745h1.43c1.597 0 2.485.972 2.485 2.73v.01c0 1.747-.888 2.724-2.485 2.724h-1.43zm8.28.889c1.402 0 2.349-1.016 2.349-2.637v-.01c0-1.62-.952-2.627-2.353-2.627-1.402 0-2.35 1.011-2.35 2.627v.01c0 1.616.943 2.637 2.354 2.637zm.005-.752c-.898 0-1.489-.689-1.489-1.885v-.01c0-1.186.596-1.875 1.48-1.875.898 0 1.484.684 1.484 1.875v.01c0 1.191-.581 1.885-1.475 1.885zm4.609.654h.864l1.143-3.93h.02L60.63 14h.864l1.416-5.078h-.84l-1.015 4.13h-.02l-1.152-4.13h-.82l-1.148 4.13h-.02l-1.015-4.13h-.845L57.457 14zm6.553 0h.85v-2.988c0-.864.522-1.436 1.322-1.436.782 0 1.167.454 1.167 1.28V14h.85v-3.296c0-1.157-.644-1.88-1.758-1.88-.771 0-1.289.347-1.562.82h-.02v-.722h-.85V14zm5.717 0h.85V6.954h-.85V14zm4.501.098c1.402 0 2.35-1.016 2.35-2.637v-.01c0-1.62-.953-2.627-2.354-2.627-1.402 0-2.349 1.011-2.349 2.627v.01c0 1.616.942 2.637 2.353 2.637zm.005-.752c-.898 0-1.489-.689-1.489-1.885v-.01c0-1.186.596-1.875 1.48-1.875.898 0 1.484.684 1.484 1.875v.01c0 1.191-.581 1.885-1.475 1.885zm5.087.752c.68 0 1.29-.367 1.588-.923h.02V14h.849v-3.51c0-1.016-.752-1.666-1.953-1.666-1.197 0-1.924.674-1.997 1.509l-.005.054h.82l.01-.044c.098-.454.508-.767 1.162-.767.708 0 1.113.376 1.113.996v.425l-1.455.083c-1.167.068-1.84.61-1.84 1.475v.01c0 .922.678 1.533 1.689 1.533zm-.82-1.534v-.01c0-.473.391-.776 1.07-.815l1.357-.083v.415c0 .738-.615 1.29-1.416 1.29-.61 0-1.01-.308-1.01-.796zm6.665 1.534c.728 0 1.294-.367 1.612-.957h.02V14h.849V6.954h-.85v2.817h-.02c-.317-.585-.908-.947-1.625-.947-1.275 0-2.144 1.03-2.144 2.632v.005c0 1.601.86 2.637 2.158 2.637zm.166-.752c-.898 0-1.455-.718-1.455-1.885v-.005c0-1.157.557-1.88 1.455-1.88.855 0 1.47.747 1.47 1.88v.005c0 1.138-.61 1.885-1.47 1.885zm8.417.752c1.402 0 2.35-1.016 2.35-2.637v-.01c0-1.62-.953-2.627-2.354-2.627-1.402 0-2.35 1.011-2.35 2.627v.01c0 1.616.943 2.637 2.354 2.637zm.005-.752c-.898 0-1.489-.689-1.489-1.885v-.01c0-1.186.596-1.875 1.48-1.875.898 0 1.484.684 1.484 1.875v.01c0 1.191-.581 1.885-1.475 1.885zm3.603.654h.85v-2.988c0-.864.522-1.436 1.323-1.436.782 0 1.167.454 1.167 1.28V14h.85v-3.296c0-1.157-.645-1.88-1.758-1.88-.771 0-1.289.347-1.562.82h-.02v-.722h-.85V14zm9.775.098c.166 0 .347-.02.454-.035v-.688c-.073.005-.171.02-.273.02-.454 0-.694-.152-.694-.694V9.625h.967v-.703h-.967V7.55h-.879v1.372h-.742v.703h.742v3.081c0 .972.459 1.392 1.392 1.392zm1.811-.098h.85v-2.964c0-.864.522-1.46 1.308-1.46.791 0 1.26.542 1.26 1.46V14h.85v-3.11c0-1.23-.738-2.066-1.817-2.066-.756 0-1.308.337-1.582.908h-.019V6.954h-.85V14zm7.837.098c1.108 0 1.938-.664 2.104-1.504l.01-.05h-.835l-.015.045c-.146.434-.6.757-1.245.757-.903 0-1.479-.61-1.499-1.656h3.657v-.312c0-1.524-.844-2.554-2.231-2.554s-2.285 1.08-2.285 2.652v.004c0 1.597.879 2.618 2.339 2.618zm-.059-4.522c.742 0 1.289.464 1.372 1.45h-2.778c.093-.947.669-1.45 1.406-1.45zM51.464 28.02h-4.957L45.47 31h-2.312l4.834-12.797h1.995L54.83 31h-2.32l-1.046-2.98zm-4.333-1.793h3.709l-1.855-5.308-1.854 5.308zm17.057.115c0 1.47-.334 2.645-1.002 3.524-.668.873-1.564 1.31-2.69 1.31-1.042 0-1.877-.343-2.504-1.028v4.508h-2.136V21.49h1.969l.088.967c.627-.762 1.48-1.143 2.558-1.143 1.16 0 2.068.434 2.724 1.301.662.862.993 2.06.993 3.595v.132zm-2.127-.185c0-.949-.19-1.702-.571-2.259-.375-.556-.914-.834-1.617-.834-.873 0-1.5.36-1.881 1.08v4.22c.387.738 1.02 1.107 1.898 1.107.68 0 1.21-.273 1.591-.818.387-.55.58-1.383.58-2.496zm12.469.185c0 1.47-.333 2.645-1.001 3.524-.668.873-1.564 1.31-2.69 1.31-1.043 0-1.877-.343-2.504-1.028v4.508h-2.136V21.49h1.969l.087.967c.627-.762 1.48-1.143 2.558-1.143 1.16 0 2.068.434 2.725 1.301.662.862.993 2.06.993 3.595v.132zm-2.126-.185c0-.949-.19-1.702-.571-2.259-.375-.556-.914-.834-1.618-.834-.873 0-1.5.36-1.88 1.08v4.22c.386.738 1.02 1.107 1.898 1.107.68 0 1.21-.273 1.59-.818.388-.55.58-1.383.58-2.496zm15.719 1.547c0-.562-.199-.996-.597-1.3-.393-.305-1.105-.613-2.136-.924-1.031-.31-1.852-.656-2.461-1.037-1.166-.732-1.75-1.687-1.75-2.865 0-1.031.42-1.88 1.258-2.549.844-.668 1.936-1.002 3.278-1.002.89 0 1.685.164 2.382.492a3.899 3.899 0 011.643 1.407c.399.603.598 1.274.598 2.013h-2.215c0-.669-.21-1.19-.633-1.565-.416-.38-1.013-.571-1.792-.571-.727 0-1.292.155-1.697.466-.398.31-.598.744-.598 1.3 0 .47.217.862.65 1.178.434.31 1.15.615 2.145.914.997.293 1.796.63 2.4 1.01.603.376 1.046.81 1.327 1.302.281.486.422 1.057.422 1.713 0 1.067-.41 1.916-1.23 2.55-.815.626-1.922.94-3.323.94-.926 0-1.778-.17-2.557-.51-.774-.346-1.377-.82-1.811-1.424-.428-.603-.642-1.306-.642-2.11h2.224c0 .727.24 1.29.72 1.688.481.399 1.17.598 2.066.598.774 0 1.354-.155 1.74-.466.393-.316.59-.732.59-1.248zm6.845-8.525v2.311h1.678v1.582h-1.678v5.309c0 .363.07.627.21.79.147.16.405.238.774.238.246 0 .495-.03.747-.088v1.653a5.259 5.259 0 01-1.406.202c-1.64 0-2.461-.905-2.461-2.716v-5.388h-1.564V21.49h1.564v-2.31h2.136zm2.854 6.978c0-.931.185-1.77.554-2.513.369-.75.887-1.325 1.555-1.723.668-.404 1.436-.607 2.303-.607 1.283 0 2.323.413 3.12 1.24.803.826 1.237 1.922 1.301 3.287l.009.5c0 .938-.182 1.776-.545 2.514a3.956 3.956 0 01-1.547 1.714c-.668.405-1.441.607-2.32.607-1.342 0-2.417-.445-3.226-1.336-.803-.897-1.204-2.089-1.204-3.577v-.106zm2.136.185c0 .978.202 1.746.606 2.303.405.55.967.826 1.688.826.72 0 1.28-.282 1.678-.844.405-.563.607-1.386.607-2.47 0-.96-.208-1.722-.624-2.285-.41-.562-.97-.844-1.679-.844-.697 0-1.251.279-1.661.835-.41.551-.615 1.377-.615 2.479zm13.691-2.901a5.277 5.277 0 00-.87-.07c-.979 0-1.638.375-1.978 1.125V31h-2.135v-9.51h2.039l.052 1.064c.516-.826 1.231-1.24 2.145-1.24.305 0 .557.041.756.123l-.009 2.004zm5.561 7.735c-1.353 0-2.452-.425-3.296-1.275-.837-.855-1.256-1.992-1.256-3.41v-.264c0-.949.181-1.795.545-2.54.369-.75.884-1.332 1.546-1.748a4.082 4.082 0 012.215-.625c1.295 0 2.294.413 2.997 1.24.709.826 1.064 1.995 1.064 3.507v.86h-6.214c.064.786.325 1.407.782 1.864.463.457 1.043.686 1.74.686.979 0 1.776-.396 2.391-1.187l1.151 1.099a3.87 3.87 0 01-1.529 1.327c-.633.31-1.345.466-2.136.466zm-.255-8.148c-.585 0-1.06.205-1.423.616-.358.41-.586.981-.686 1.713h4.069V25.2c-.046-.715-.237-1.254-.571-1.617-.334-.37-.797-.554-1.389-.554z" fill="#fff"/><path d="M4 1h127v-2H4v2zm130 3v32h2V4h-2zm-3 35H4v2h127v-2zM1 36V4h-2v32h2zm3 3a3 3 0 01-3-3h-2a5 5 0 005 5v-2zm130-3a3 3 0 01-3 3v2a5 5 0 005-5h-2zm-3-35a3 3 0 013 3h2a5 5 0 00-5-5v2zM4-1a5 5 0 00-5 5h2a3 3 0 013-3v-2z" fill="#A1A1A1"/></svg>