<svg width="24" height="24" fill="none" xmlns="http://www.w3.org/2000/svg"><path fill-rule="evenodd" clip-rule="evenodd" d="M1.25 7.455c0-3.415 2.79-6.205 6.205-6.205h9.09c3.415 0 6.205 2.79 6.205 6.205v9.09c0 3.415-2.79 6.205-6.204 6.205H7.455c-3.415 0-6.205-2.79-6.205-6.204V7.455zM7.455 2.75c-2.586 0-4.705 2.119-4.705 4.705v9.09c0 2.586 2.119 4.705 4.705 4.705h9.09c2.586 0 4.705-2.119 4.705-4.704V7.455c0-2.586-2.119-4.705-4.704-4.705H7.455zM12 15.5a3.5 3.5 0 100-7 3.5 3.5 0 000 7zm0 1.5a5 5 0 100-10 5 5 0 000 10zm5-10a1 1 0 100-2 1 1 0 000 2z" fill="#6E7491"/></svg>