<svg width="24" height="24" fill="none" xmlns="http://www.w3.org/2000/svg"><path d="M23 6.013c-.287.429-.612.829-.974 1.2s-.756.71-1.18 1.017a8.488 8.488 0 01.021.561c0 .859-.092 1.707-.277 2.544a12.654 12.654 0 01-.8 2.432 12.616 12.616 0 01-1.896 3.05 11.642 11.642 0 01-2.58 2.273 11.75 11.75 0 01-3.142 1.42 12.86 12.86 0 01-3.568.49c-1.176 0-2.323-.162-3.44-.485A11.902 11.902 0 012 19.069a8.671 8.671 0 003.86-.409 8.577 8.577 0 002.518-1.369 4.269 4.269 0 01-2.487-.843 4.36 4.36 0 01-1.533-2.13c.137.02.272.038.405.052a4.212 4.212 0 001.533-.133 4.222 4.222 0 01-1.389-.542 4.407 4.407 0 01-1.092-.945 4.237 4.237 0 01-.718-1.256 4.229 4.229 0 01-.256-1.466v-.051a4.16 4.16 0 001.958.541 4.322 4.322 0 01-1.774-4.694c.096-.365.243-.71.441-1.037A11.913 11.913 0 005.291 6.6a12.327 12.327 0 004.512 2.278 11.99 11.99 0 002.543.394 3.204 3.204 0 01-.087-.486 4.858 4.858 0 01-.026-.495c0-.593.113-1.15.339-1.67a4.31 4.31 0 012.292-2.284A4.2 4.2 0 0116.54 4a4.283 4.283 0 013.148 1.359 8.576 8.576 0 002.728-1.042c-.158.497-.399.95-.723 1.358a4.186 4.186 0 01-1.164 1.012A8.58 8.58 0 0023 6.013z" fill="#6E7491"/></svg>