<svg width="512" height="512" viewBox="0 0 512 512" fill="none" xmlns="http://www.w3.org/2000/svg">
<path d="M467 61H165C140.18 61 120 81.19 120 106C120 130.82 140.18 151 165 151H467C491.81 151 512 130.82 512 106C512 81.19 491.81 61 467 61Z" fill="#605DEC"/>
<path d="M467 211H165C140.18 211 120 231.19 120 256C120 280.82 140.18 301 165 301H467C491.81 301 512 280.82 512 256C512 231.19 491.81 211 467 211Z" fill="#605DEC"/>
<path d="M467 361H165C140.18 361 120 381.19 120 406C120 430.82 140.18 451 165 451H467C491.81 451 512 430.82 512 406C512 381.19 491.81 361 467 361Z" fill="#605DEC"/>
<path d="M45 61C20.18 61 0 81.19 0 106C0 130.82 20.18 151 45 151C69.81 151 90 130.82 90 106C90 81.19 69.81 61 45 61Z" fill="#605DEC"/>
<path d="M45 211C20.18 211 0 231.19 0 256C0 280.82 20.18 301 45 301C69.81 301 90 280.82 90 256C90 231.19 69.81 211 45 211Z" fill="#605DEC"/>
<path d="M45 361C20.18 361 0 381.19 0 406C0 430.82 20.18 451 45 451C69.81 451 90 430.82 90 406C90 381.19 69.81 361 45 361Z" fill="#605DEC"/>
</svg>
