<svg width="32" height="33" viewBox="0 0 32 33" fill="none" xmlns="http://www.w3.org/2000/svg">
<path d="M0 4.5C0 2.29086 1.79086 0.5 4 0.5H28C30.2091 0.5 32 2.29086 32 4.5V28.5C32 30.7091 30.2091 32.5 28 32.5H4C1.79086 32.5 0 30.7091 0 28.5V4.5Z" fill="#FAFAFA"/>
<path d="M15 15.5V9.5C15 8.94772 15.4477 8.5 16 8.5C16.5523 8.5 17 8.94772 17 9.5V15.5L23 15.5C23.5523 15.5 24 15.9477 24 16.5C24 17.0523 23.5523 17.5 23 17.5L17 17.5V23.5C17 24.0523 16.5523 24.5 16 24.5C15.4477 24.5 15 24.0523 15 23.5V17.5H9C8.44772 17.5 8 17.0523 8 16.5C8 15.9477 8.44772 15.5 9 15.5H15Z" fill="#605DEC"/>
</svg>
