<svg width="44" height="44" fill="none" xmlns="http://www.w3.org/2000/svg"><g clip-path="url(#clip0)" fill="#605DEC"><path d="M39.95 5.523H4.05A4.054 4.054 0 000 9.575a4.054 4.054 0 004.05 4.049h35.9A4.054 4.054 0 0044 9.574a4.054 4.054 0 00-4.05-4.051zm0 12.427H4.05A4.054 4.054 0 000 22a4.054 4.054 0 004.05 4.05h35.9A4.054 4.054 0 0044 22a4.054 4.054 0 00-4.05-4.052zm0 12.426H4.05A4.054 4.054 0 000 34.428a4.054 4.054 0 004.05 4.05h35.9a4.054 4.054 0 004.05-4.05 4.054 4.054 0 00-4.05-4.052z"/></g><defs><clipPath id="clip0"><path fill="#fff" d="M0 0h44v44H0z"/></clipPath></defs></svg>